<svg xmlns="http://www.w3.org/2000/svg" viewBox="0 0 24 24" width="48" height="48" fill="none">
  <!-- Rounded Square background in brand green -->
  <rect width="24" height="24" rx="6" fill="#4A5D4E" />
  
  <!-- Cloud outline in brand cream -->
  <path d="M6 15.5a3 3 0 0 1 0-6 3.5 3.5 0 0 1 5.5-2.5 4.5 4.5 0 0 1 7.5 3 2.5 2.5 0 0 1-1 4.5H6z" stroke="#FAF9F6" stroke-width="1.2" stroke-linejoin="round" fill="#FAF9F6" fill-opacity="0.1" />
  
  <!-- Shield/Vault outline in cream -->
  <path d="M12 8.5s3 1 3 3v2.5c0 2-3 3.5-3 3.5s-3-1.5-3-3.5V11.5c0-2 3-3V8.5z" stroke="#FAF9F6" stroke-width="1" stroke-linecap="round" stroke-linejoin="round" fill="#FAF9F6" fill-opacity="0.25" />
  
  <!-- Lock keyhole details -->
  <circle cx="12" cy="12.5" r="0.8" fill="#FAF9F6" />
  <path d="M12 13.3v1" stroke="#FAF9F6" stroke-width="0.8" stroke-linecap="round" />
</svg>